<svg width="608" height="822" viewBox="0 0 608 822" fill="none" xmlns="http://www.w3.org/2000/svg">
<g clip-path="url(#clip0_2_16)">
<path d="M546.344 0.544L608 0L599.687 61.013C593.502 106.29 572.521 193.232 501.71 266.863C417.341 354.646 310.557 374.835 244.546 377.953C263.053 421.944 288.141 468.26 312.486 513.24C384.586 646.647 459.154 784.457 387.008 895.84C352.518 949.183 289.873 985.454 210.699 997.973C191.727 1000.95 172.552 1002.44 153.348 1002.43C99.015 1002.43 47.157 990.749 3.36401 968.679C2.27501 968.135 1.13702 967.541 -0.000976562 966.997C-1.13898 967.591 -2.27698 968.135 -3.41498 968.729C-47.059 990.749 -98.915 1002.43 -153.3 1002.43C-172.504 1002.44 -191.68 1000.95 -210.651 997.975C-289.824 985.456 -352.42 949.185 -386.96 895.891C-459.106 784.455 -384.585 646.644 -312.537 513.336L-312.092 512.594C-287.845 467.762 -262.856 421.594 -244.448 377.95C-310.508 374.833 -417.342 354.643 -501.662 266.86C-572.57 193.083 -593.452 106.24 -599.637 61.013L-608 0L-546.344 0.544C-323.67 2.672 -188.531 54.432 -133.258 158.792C-67.099 283.592 -144.144 426.051 -218.616 563.861C-278.689 674.852 -335.348 779.509 -297.493 837.9C-266.615 885.651 -174.379 908.117 -95.849 889.511C-128.805 851.557 -152.755 808.557 -163.938 766.595C-176.556 719.24 -171.954 677.08 -150.577 644.569C-132.763 617.452 -94.71 585.14 -13.904 581.033C-10.044 580.786 -6.036 580.633 -1.979 580.538H-1.534C-0.989997 580.538 -0.444989 580.538 0.0490112 580.587H0.841003C0.890003 580.538 1.04102 580.587 1.04102 580.587H1.63501C5.84101 580.636 9.99798 580.787 14.006 581.032C94.812 585.189 132.865 617.501 150.629 644.568C172.006 677.078 176.608 719.288 163.989 766.594C152.756 808.556 128.807 851.556 95.851 889.51C174.43 908.116 266.667 885.65 297.544 837.899C335.349 779.558 278.744 674.852 218.767 564.01C144.194 426.149 67.1 283.638 133.308 158.792C188.63 54.432 323.768 2.672 546.344 0.544ZM-227.425 208.72C-256.719 153.4 -343.018 119.353 -477.562 109.8C-465.648 140.767 -447.7 169.058 -424.762 193.031C-359.642 260.823 -275.174 272.006 -226.582 272.006C-222.623 272.006 -218.912 271.906 -215.498 271.806C-214.015 247.267 -217.974 226.534 -227.425 208.72ZM61.557 703.107C58.044 697.862 40.675 687.767 -0.148987 687.124C-40.676 687.767 -58.049 697.862 -61.508 703.157C-64.477 707.61 -66.108 719.734 -60.964 739.082C-52.403 770.999 -28.948 808.21 0.0490112 836.317C29.049 808.112 52.501 770.95 61.012 739.033C66.159 719.783 64.526 707.659 61.557 703.107ZM477.612 109.807C343.067 119.357 256.769 153.402 227.475 208.675C218.024 226.538 214.065 247.275 215.55 271.815C261.421 273.497 354.4 266.322 424.864 193.038C447.771 169.047 465.698 140.757 477.612 109.8V109.807Z" fill="white"/>
</g>
<defs>
<clipPath id="clip0_2_16">
<rect width="608" height="822" fill="white"/>
</clipPath>
</defs>
</svg>
