<svg xmlns="http://www.w3.org/2000/svg" width="189.999" height="38.803" viewBox="0 0 189.999 38.803">
  <g id="logo" transform="translate(-92.5 -60)">
    <path id="Vector" d="M0,10.661A10.611,10.611,0,0,1,10.956,0a10.466,10.466,0,0,1,7.922,3.413L15.339,7a5.746,5.746,0,0,0-4.382-1.812,5.168,5.168,0,0,0-5.31,5.436,5.2,5.2,0,0,0,5.31,5.478,5.631,5.631,0,0,0,4.425-1.9l3.582,3.582a10.454,10.454,0,0,1-8.006,3.455C4.72,21.238,0,16.687,0,10.661Z" transform="translate(152.666 72.019)" fill="#1a0b05"/>
    <path id="Vector-2" data-name="Vector" d="M0,0H5.52V12.01a7.77,7.77,0,0,1,5.773-2.318,7.578,7.578,0,0,1,7.922,7.88V30.467H13.7V18.794a3.916,3.916,0,0,0-4.088-4.088A3.916,3.916,0,0,0,5.52,18.794V30.467H0V0Z" transform="translate(175.379 62.368)" fill="#1a0b05"/>
    <path id="Vector-3" data-name="Vector" d="M0,10.619A10.49,10.49,0,0,1,10.7,0c6.026,0,10.029,4.3,10.029,10.156a10.62,10.62,0,0,1-.295,2.4L5.562,12.6a5.255,5.255,0,0,0,5.478,4A6.488,6.488,0,0,0,16.055,14.5L19.3,17.741a10.606,10.606,0,0,1-8.217,3.5C4.72,21.238,0,16.771,0,10.619ZM5.562,8.47h9.861A4.448,4.448,0,0,0,10.7,4.593,5.1,5.1,0,0,0,5.562,8.47Z" transform="translate(198.347 72.019)" fill="#1a0b05"/>
    <path id="Vector-4" data-name="Vector" d="M0,10.619A10.49,10.49,0,0,1,10.7,0c6.026,0,10.029,4.3,10.029,10.156a10.62,10.62,0,0,1-.295,2.4L5.562,12.6a5.255,5.255,0,0,0,5.478,4A6.488,6.488,0,0,0,16.055,14.5L19.3,17.741a10.606,10.606,0,0,1-8.217,3.5C4.72,21.238,0,16.771,0,10.619ZM5.562,8.47h9.861A4.448,4.448,0,0,0,10.7,4.593,5.1,5.1,0,0,0,5.562,8.47Z" transform="translate(221.771 72.019)" fill="#1a0b05"/>
    <path id="Vector-5" data-name="Vector" d="M4.762,13.316H0V8.47H4.762V0h5.52V8.47h4.762v4.846H10.282V28.823H4.762V13.316Z" transform="translate(244.316 64.012)" fill="#1a0b05"/>
    <path id="Vector-6" data-name="Vector" d="M0,10.619C0,4.593,4.214,0,9.734,0a8.123,8.123,0,0,1,5.942,2.36V.421h5.478V20.775H15.676V18.836a8.094,8.094,0,0,1-5.9,2.36C4.214,21.2,0,16.645,0,10.619Zm15.971-.042c0-3.2-2.107-5.478-5.183-5.478S5.647,7.374,5.647,10.577s2.107,5.52,5.141,5.52,5.183-2.276,5.183-5.52Z" transform="translate(261.345 72.06)" fill="#1a0b05"/>
    <path id="Vector-7" data-name="Vector" d="M.5,0V.019C.347.01.186,0,.023,0H.5Z" transform="translate(116.07 82.471)" fill="#1a0b05"/>
    <path id="Vector-8" data-name="Vector" d="M44.683.021,47.07,0l-.322,2.362a14.434,14.434,0,0,1-3.793,7.968A14.641,14.641,0,0,1,33,14.63c.716,1.7,1.687,3.5,2.63,5.237,2.791,5.164,5.677,10.5,2.885,14.81a9.661,9.661,0,0,1-6.825,3.953,14.242,14.242,0,0,1-2.22.172A12.953,12.953,0,0,1,23.665,37.5l-.13-.065L23.4,37.5a12.938,12.938,0,0,1-5.8,1.3,14.243,14.243,0,0,1-2.22-.172,9.67,9.67,0,0,1-6.825-3.952c-2.793-4.314.092-9.648,2.881-14.808l.017-.029c.939-1.735,1.906-3.522,2.618-5.212a14.639,14.639,0,0,1-9.956-4.3A14.429,14.429,0,0,1,.324,2.362L0,0,2.387.021c8.619.082,13.85,2.086,15.99,6.126,2.561,4.831-.421,10.345-3.3,15.68-2.325,4.3-4.518,8.347-3.053,10.608,1.2,1.848,4.766,2.718,7.805,2a12.274,12.274,0,0,1-2.636-4.758,5.725,5.725,0,0,1,.517-4.723c.69-1.05,2.163-2.3,5.29-2.459.149-.01.3-.015.462-.019h.017c.021,0,.042,0,.061,0h.031s.008,0,.008,0H23.6c.163,0,.324.008.479.017,3.128.161,4.6,1.412,5.288,2.459a5.726,5.726,0,0,1,.517,4.723,12.3,12.3,0,0,1-2.638,4.758c3.042.72,6.612-.149,7.807-2,1.463-2.258-.728-6.311-3.049-10.6C29.116,16.5,26.132,10.979,28.7,6.147,30.836,2.107,36.067.1,44.683.021ZM14.732,8.079C13.6,5.938,10.257,4.62,5.049,4.25A9.7,9.7,0,0,0,7.093,7.472a10.548,10.548,0,0,0,7.671,3.057c.153,0,.3,0,.429-.008a4.509,4.509,0,0,0-.462-2.442ZM25.918,27.216c-.136-.2-.808-.594-2.389-.619-1.569.025-2.241.416-2.375.621a1.973,1.973,0,0,0,.021,1.391,8.912,8.912,0,0,0,2.362,3.764,8.917,8.917,0,0,0,2.36-3.766,1.978,1.978,0,0,0,.021-1.391ZM42.023,4.25c-5.208.37-8.549,1.688-9.682,3.827a4.52,4.52,0,0,0-.462,2.444,10.676,10.676,0,0,0,8.1-3.049A9.722,9.722,0,0,0,42.023,4.25Z" transform="translate(92.5 60)" fill="#1a0b05"/>
    <path id="Vector-9" data-name="Vector" d="M.013,0l.1,0L.1.006H.073C.054,0,.033,0,.012,0H0L.013,0Z" transform="translate(115.959 82.468)" fill="#1a0b05"/>
    <path id="Vector-10" data-name="Vector" d="M.462,0C.3,0,.149.008,0,.017V0Z" transform="translate(115.495 82.473)" fill="#1a0b05"/>
  </g>
</svg>
