<svg xmlns="http://www.w3.org/2000/svg" width="190" height="38.804" viewBox="0 0 190 38.804">
  <g id="logo" transform="translate(-30 -25)">
    <path id="Vector" d="M0,10.662A10.611,10.611,0,0,1,10.957,0a10.466,10.466,0,0,1,7.922,3.413L15.339,7a5.746,5.746,0,0,0-4.383-1.812,5.168,5.168,0,0,0-5.31,5.436,5.2,5.2,0,0,0,5.31,5.478,5.632,5.632,0,0,0,4.425-1.9l3.582,3.582a10.454,10.454,0,0,1-8.007,3.456C4.72,21.239,0,16.688,0,10.662Z" transform="translate(90.165 37.02)" fill="#fff"/>
    <path id="Vector-2" data-name="Vector" d="M0,0H5.52V12.01a7.77,7.77,0,0,1,5.773-2.318,7.578,7.578,0,0,1,7.922,7.88v12.9H13.7V18.795a3.916,3.916,0,0,0-4.088-4.088A3.916,3.916,0,0,0,5.52,18.795V30.468H0V0Z" transform="translate(112.879 27.369)" fill="#fff"/>
    <path id="Vector-3" data-name="Vector" d="M0,10.619A10.49,10.49,0,0,1,10.7,0C16.73,0,20.733,4.3,20.733,10.156a10.62,10.62,0,0,1-.295,2.4L5.563,12.6a5.255,5.255,0,0,0,5.478,4A6.488,6.488,0,0,0,16.056,14.5L19.3,17.741a10.606,10.606,0,0,1-8.217,3.5C4.72,21.239,0,16.772,0,10.619ZM5.563,8.47h9.861A4.448,4.448,0,0,0,10.7,4.593,5.1,5.1,0,0,0,5.563,8.47Z" transform="translate(135.845 37.02)" fill="#fff"/>
    <path id="Vector-4" data-name="Vector" d="M0,10.619A10.49,10.49,0,0,1,10.7,0C16.73,0,20.733,4.3,20.733,10.156a10.62,10.62,0,0,1-.295,2.4L5.563,12.6a5.255,5.255,0,0,0,5.478,4A6.488,6.488,0,0,0,16.056,14.5L19.3,17.741a10.606,10.606,0,0,1-8.217,3.5C4.72,21.239,0,16.772,0,10.619ZM5.563,8.47h9.861A4.448,4.448,0,0,0,10.7,4.593,5.1,5.1,0,0,0,5.563,8.47Z" transform="translate(159.275 37.02)" fill="#fff"/>
    <path id="Vector-5" data-name="Vector" d="M4.762,13.316H0V8.47H4.762V0h5.52V8.47h4.762v4.846H10.282V28.824H4.762Z" transform="translate(181.82 29.013)" fill="#fff"/>
    <path id="Vector-6" data-name="Vector" d="M0,10.619C0,4.593,4.214,0,9.734,0a8.124,8.124,0,0,1,5.942,2.36V.421h5.478V20.775H15.676V18.837a8.094,8.094,0,0,1-5.9,2.36C4.214,21.2,0,16.646,0,10.619Zm15.971-.042c0-3.2-2.107-5.478-5.183-5.478S5.647,7.375,5.647,10.577s2.107,5.52,5.141,5.52S15.971,13.822,15.971,10.577Z" transform="translate(198.845 37.062)" fill="#fff"/>
    <path id="Vector-7" data-name="Vector" d="M.5,0V.019C.347.01.186,0,.023,0H.5Z" transform="translate(53.576 47.472)" fill="#fff"/>
    <path id="Vector-8" data-name="Vector" d="M44.684.021,47.071,0l-.322,2.362a14.434,14.434,0,0,1-3.793,7.968A14.642,14.642,0,0,1,33,14.63c.716,1.7,1.688,3.5,2.63,5.237,2.791,5.164,5.677,10.5,2.885,14.811a9.661,9.661,0,0,1-6.825,3.954,14.244,14.244,0,0,1-2.22.172A12.953,12.953,0,0,1,23.666,37.5l-.13-.065L23.4,37.5a12.938,12.938,0,0,1-5.8,1.3,14.244,14.244,0,0,1-2.22-.172A9.67,9.67,0,0,1,8.556,34.68c-2.793-4.314.092-9.648,2.881-14.809l.017-.029c.939-1.735,1.906-3.523,2.618-5.212a14.639,14.639,0,0,1-9.957-4.3A14.429,14.429,0,0,1,.324,2.362L0,0,2.387.021c8.62.082,13.851,2.086,15.99,6.126,2.561,4.831-.421,10.346-3.3,15.68-2.325,4.3-4.519,8.348-3.053,10.608,1.2,1.848,4.766,2.718,7.806,2a12.274,12.274,0,0,1-2.636-4.758,5.725,5.725,0,0,1,.517-4.724c.69-1.05,2.163-2.3,5.291-2.459.149-.01.3-.015.462-.019h.017c.021,0,.042,0,.061,0h.031s.008,0,.008,0H23.6c.163,0,.324.008.479.017,3.128.161,4.6,1.412,5.289,2.459a5.726,5.726,0,0,1,.517,4.724,12.3,12.3,0,0,1-2.638,4.758c3.042.72,6.612-.149,7.808-2,1.463-2.258-.728-6.312-3.049-10.6C29.117,16.5,26.133,10.98,28.7,6.147,30.837,2.107,36.069.1,44.684.021ZM14.732,8.079C13.6,5.938,10.257,4.62,5.049,4.25A9.7,9.7,0,0,0,7.093,7.472a10.549,10.549,0,0,0,7.671,3.057c.153,0,.3,0,.429-.008a4.51,4.51,0,0,0-.462-2.442ZM25.918,27.217c-.136-.2-.808-.594-2.389-.619-1.569.025-2.241.416-2.375.621a1.973,1.973,0,0,0,.021,1.391,8.912,8.912,0,0,0,2.362,3.764,8.917,8.917,0,0,0,2.36-3.766,1.978,1.978,0,0,0,.021-1.391ZM42.024,4.25c-5.208.37-8.549,1.688-9.683,3.827a4.52,4.52,0,0,0-.462,2.444,10.676,10.676,0,0,0,8.1-3.049A9.723,9.723,0,0,0,42.024,4.25Z" transform="translate(30 25)" fill="#fff"/>
    <path id="Vector-9" data-name="Vector" d="M.013,0l.1,0L.1.006H.073C.054,0,.033,0,.012,0H0L.013,0Z" transform="translate(53.465 47.469)" fill="#fff"/>
    <path id="Vector-10" data-name="Vector" d="M.462,0C.3,0,.149.008,0,.017V0Z" transform="translate(52.997 47.474)" fill="#fff"/>
  </g>
</svg>
